<?xml version="1.0" encoding="utf-8"?>
<!-- Generator: Adobe Illustrator 25.3.0, SVG Export Plug-In . SVG Version: 6.00 Build 0)  -->
<svg version="1.1" id="Layer_1" xmlns="http://www.w3.org/2000/svg" xmlns:xlink="http://www.w3.org/1999/xlink" x="0px" y="0px"
	 viewBox="0 0 1134.1 287" style="enable-background:new 0 0 1134.1 287;" xml:space="preserve">
<style type="text/css">
	.st0{fill:#C1BF97;}
	.st1{fill:#FBFCC5;}
	.st2{fill:#3F3F38;}
</style>
<g>
	<path class="st0" d="M240.1,286.4H15c-8.3,0-15-6.7-15-15V25.2c0-8.3,6.7-15,15-15h225.1c8.3,0,15,6.7,15,15v246.2
		C255.1,279.7,248.4,286.4,240.1,286.4z"/>
	<path class="st1" d="M240.1,259.1H15c-8.3,0-15-6.7-15-15v-219c0-8.3,6.7-15,15-15h225.1c8.3,0,15,6.7,15,15v219
		C255.1,252.4,248.4,259.1,240.1,259.1z"/>
	<g>
		<path class="st0" d="M48.2,20.9h15.1c1.1,0,2-0.9,2-2V1.5c0-1.1-0.9-2-2-2H48.2c-1.1,0-2,0.9-2,2v17.4
			C46.2,20,47.1,20.9,48.2,20.9z"/>
		<path class="st0" d="M96.1,20.9h15.1c1.1,0,2-0.9,2-2V1.5c0-1.1-0.9-2-2-2H96.1c-1.1,0-2,0.9-2,2v17.4C94.1,20,95,20.9,96.1,20.9z
			"/>
		<path class="st0" d="M143.9,20.9H159c1.1,0,2-0.9,2-2V1.5c0-1.1-0.9-2-2-2h-15.1c-1.1,0-2,0.9-2,2v17.4
			C141.9,20,142.8,20.9,143.9,20.9z"/>
		<path class="st0" d="M191.7,20.9h15.1c1.1,0,2-0.9,2-2V1.5c0-1.1-0.9-2-2-2h-15.1c-1.1,0-2,0.9-2,2v17.4
			C189.7,20,190.6,20.9,191.7,20.9z"/>
	</g>
</g>
<g>
	<path class="st2" d="M330.2,187.4l11.8-6.3c6.3,11.2,15.5,20.8,34.3,20.8c15.5,0,27.7-8.6,27.7-22.8c0-13.5-8.4-20.4-25.1-27.9
		l-10.6-4.9c-19-8.6-29.4-17.9-29.4-36.5c0-19.2,15.1-32,35.1-32c17.9,0,29,8.2,36.1,20l-11.4,7.1c-5.1-8.2-12.2-14.5-24.7-14.5
		c-13.2,0-21.2,7.7-21.2,19c0,11.8,6.3,17.1,21.2,23.9l10.6,4.9c22.2,9.8,33.6,20.8,33.6,40.8c0,22-17.5,35.3-41.4,35.3
		C351.2,214.5,337.2,201.5,330.2,187.4z"/>
	<path class="st2" d="M443.2,71.2H457v76.4c5.1-10.8,15.7-17.7,28.9-17.7c18.1,0,30.4,12.4,30.4,33.6v49.5h-13.7V165
		c0-14.3-6.7-22.6-20.2-22.6c-15.1,0-25.3,9.6-25.3,25.7v44.8h-13.7V71.2z"/>
	<path class="st2" d="M539.4,172.3c0-23.7,18.8-42.4,43.2-42.4c24.1,0,42.8,18.6,42.8,42.4s-18.6,42.2-42.8,42.2
		C558.2,214.5,539.4,196,539.4,172.3z M611.4,172.3c0-17.5-11.6-30.4-28.9-30.4c-17.5,0-29.2,13-29.2,30.4s11.8,30.4,29.2,30.4
		C599.8,202.7,611.4,189.8,611.4,172.3z"/>
	<path class="st2" d="M649.3,131.7H663l-0.4,15.9c5.1-12.4,14.1-17.5,23.7-17.5c6.1,0,10.4,1.4,14.1,3.9l-5.3,12
		c-2.6-1.8-6.1-3.1-11.2-3.1c-11.6,0-21,8.2-21,27.3v42.8h-13.7V131.7z"/>
	<path class="st2" d="M725.1,188.4v-45.1h-12.6v-11.6h12.6V89.3h13.5v42.4h22.8v11.6h-22.8v45.3c0,10.8,3.7,14.1,9.6,14.1
		c5.5,0,8.4-2.4,11-4.7l7.5,8.6c-3.5,3.7-9.8,8-19.8,8C734.5,214.7,725.1,207.6,725.1,188.4z"/>
	<path class="st2" d="M786.3,131.7H800l-0.4,16.7c5.3-11.6,16.1-18.5,29.2-18.5c18.1,0,30.4,12.4,30.4,33.6v49.5h-13.7V165
		c0-14.3-6.7-22.6-20.2-22.6c-15.1,0-25.3,9.6-25.3,25.7v44.8h-13.7V131.7z"/>
	<path class="st2" d="M882.5,172.3c0-23.7,18.8-42.4,43.2-42.4c24.1,0,42.8,18.6,42.8,42.4s-18.6,42.2-42.8,42.2
		C901.3,214.5,882.5,196,882.5,172.3z M954.5,172.3c0-17.5-11.6-30.4-28.9-30.4c-17.5,0-29.2,13-29.2,30.4s11.8,30.4,29.2,30.4
		C942.9,202.7,954.5,189.8,954.5,172.3z"/>
	<path class="st2" d="M996.1,188.4v-45.1h-12.6v-11.6h12.6V89.3h13.5v42.4h22.8v11.6h-22.8v45.3c0,10.8,3.7,14.1,9.6,14.1
		c5.5,0,8.4-2.4,11-4.7l7.5,8.6c-3.5,3.7-9.8,8-19.8,8C1005.5,214.7,996.1,207.6,996.1,188.4z"/>
	<path class="st2" d="M1095.2,202.9c12.2,0,20.4-4.9,25.7-10.8l8.4,8.2c-7.5,8.4-18.3,14.1-34.2,14.1c-26.7,0-44-18.5-44-42.2
		s18.3-42.4,42-42.4c26.1,0,41.8,20,40.8,46.9H1065C1066.8,192.3,1077.4,202.9,1095.2,202.9z M1120.4,166.4
		c-1.2-13.9-10-24.9-27.1-24.9c-15.5,0-25.9,10-28.1,24.9H1120.4z"/>
</g>
</svg>
